<svg width="546" height="546" viewBox="0 0 546 546" fill="none" xmlns="http://www.w3.org/2000/svg">
<rect width="546" height="546" rx="71" fill="#3B4158"/>
<path fill-rule="evenodd" clip-rule="evenodd" d="M150.075 150.698L27 272.5C51.6172 296.863 79.7386 317.396 110.399 333.459C118.874 355.707 132.157 376.571 150.25 394.476C218.32 461.841 328.681 461.841 396.75 394.476C414.843 376.571 428.127 355.707 436.602 333.458C467.261 317.396 495.383 296.863 520 272.5L397.025 150.797C396.934 150.706 396.842 150.615 396.75 150.524C328.681 83.1587 218.32 83.1587 150.25 150.524C150.192 150.582 150.133 150.64 150.075 150.698ZM384.973 355.435C349.108 367.413 311.457 373.548 273.5 373.548C235.543 373.548 197.894 367.413 162.028 355.435C165.914 360.537 170.204 365.433 174.9 370.081C229.356 423.974 317.644 423.974 372.1 370.081C376.796 365.433 381.087 360.537 384.973 355.435ZM177.428 172.48C186.675 178.526 196.508 183.7 206.797 187.918C227.944 196.587 250.61 201.049 273.5 201.049C296.39 201.049 319.056 196.587 340.203 187.918C350.492 183.7 360.325 178.526 369.573 172.479C315.797 121.84 231.203 121.84 177.428 172.48Z" fill="white"/>
</svg>
